<svg xmlns="http://www.w3.org/2000/svg" width="23.419" height="19.239" viewBox="0 0 23.419 19.239">
  <g id="aliado-store" transform="translate(-27.633 -6.336)">
    <g id="Group_1551" data-name="Group 1551" transform="translate(28.133 6.836)">
      <path id="Union_2" data-name="Union 2" d="M1.663,18.239a.574.574,0,0,1-.574-.574V7.3a3.232,3.232,0,0,1-.8-3.748L1.717.341A.575.575,0,0,1,2.242,0H20.177A.575.575,0,0,1,20.7.341l1.434,3.218a3.233,3.233,0,0,1-.8,3.745V17.665a.574.574,0,0,1-.574.574ZM20.182,17.09V7.962a3.233,3.233,0,0,1-3.655-1.238,3.231,3.231,0,0,1-5.318,0,3.231,3.231,0,0,1-5.318,0A3.233,3.233,0,0,1,2.237,7.962V17.09h.855V10.458a.574.574,0,0,1,.574-.574H9.324a.574.574,0,0,1,.574.574V17.09Zm-15.941,0H8.749V11.032H4.241ZM17.1,4.886a2.084,2.084,0,1,0,3.985-.857L19.8,1.149H2.615L1.333,4.026a2.085,2.085,0,1,0,3.985.86.574.574,0,1,1,1.148,0,2.084,2.084,0,1,0,4.169,0,.574.574,0,0,1,1.149,0,2.085,2.085,0,1,0,4.169,0,.574.574,0,0,1,1.149,0ZM11.553,15.7a.575.575,0,0,1-.574-.574V10.458a.574.574,0,0,1,.574-.574h7.025a.574.574,0,0,1,.574.574v4.666a.575.575,0,0,1-.574.574Zm.574-1.149H18V11.032H12.128Z" transform="translate(0 0)" fill="#fff" stroke="rgba(0,0,0,0)" stroke-miterlimit="10" stroke-width="1"/>
    </g>
  </g>
</svg>
