<svg xmlns="http://www.w3.org/2000/svg" width="19.85" height="22.687" viewBox="0 0 19.85 22.687">
  <path id="bell-regular" d="M11.344,1.418V2.21a6.738,6.738,0,0,1,5.672,6.652v1.48a8.892,8.892,0,0,0,1.941,5.539l.66.824a1.063,1.063,0,0,1-.829,1.728H1.063a1.064,1.064,0,0,1-.83-1.728l.661-.824a8.875,8.875,0,0,0,1.942-5.539V8.862A6.738,6.738,0,0,1,8.508,2.21V1.418a1.418,1.418,0,1,1,2.836,0ZM9.571,4.254A4.611,4.611,0,0,0,4.963,8.862v1.48A11,11,0,0,1,3.2,16.307H16.648a11.005,11.005,0,0,1-1.759-5.964V8.862A4.611,4.611,0,0,0,10.28,4.254Zm3.19,15.6a2.829,2.829,0,0,1-2.836,2.836,2.837,2.837,0,0,1-2.007-.829,2.908,2.908,0,0,1-.829-2.007Z" transform="translate(0)" fill="#fff"/>
</svg>
