<svg id="Layer_1" data-name="Layer 1" xmlns="http://www.w3.org/2000/svg" viewBox="0 0 87.81 87.81"><defs><style>.cls-1{fill:#fff9eb;stroke:#ffcc04;stroke-miterlimit:10;}.cls-2{fill:#ffeab6;}.cls-3{fill:#ffcc04;}</style></defs><title>ic-alert</title><circle class="cls-1" cx="43.9" cy="43.9" r="43.4"/><polygon class="cls-2" points="42.9 63.28 16.21 63.28 29.56 38.32 42.9 13.36 56.25 38.32 69.59 63.28 42.9 63.28"/><g id="Capa_2" data-name="Capa 2"><path class="cls-3" d="M43.64,29.4a3,3,0,1,0,3,3h0A3,3,0,0,0,43.64,29.4Z" transform="translate(-0.34 -0.4)"/><path class="cls-3" d="M43.64,40a2.27,2.27,0,0,0-2.27,2.26h0V55.88a2.27,2.27,0,1,0,4.54,0V42.25A2.27,2.27,0,0,0,43.64,40Z" transform="translate(-0.34 -0.4)"/><path class="cls-3" d="M72.78,67.2h-57a2.42,2.42,0,0,1-2.42-2.41,2.46,2.46,0,0,1,.29-1.16l27.59-51a2.41,2.41,0,0,1,2.09-1.26h0a2.43,2.43,0,0,1,2.1,1.21l29.46,51A2.4,2.4,0,0,1,74,66.87a2.34,2.34,0,0,1-1.21.33Zm-53-4.83H68.6L43.39,18.77Z" transform="translate(-0.34 -0.4)"/></g></svg>