<svg xmlns="http://www.w3.org/2000/svg" width="250" height="250" viewBox="0 0 250 250">
  <g id="ic-Anulacion" transform="translate(-1713 1374)">
    <rect id="Rectangle_1161" data-name="Rectangle 1161" width="250" height="250" transform="translate(1713 -1374)" fill="none"/>
    <g id="Group_1700" data-name="Group 1700" transform="translate(-325.273 -1511.506)">
      <line id="Line_39" data-name="Line 39" x2="96.762" transform="translate(2108.492 223.847)" fill="none" stroke="#50a3ff" stroke-linecap="round" stroke-linejoin="round" stroke-width="9"/>
      <line id="Line_40" data-name="Line 40" x2="51.305" transform="translate(2111.927 257.351)" fill="none" stroke="#50a3ff" stroke-linecap="round" stroke-linejoin="round" stroke-width="9"/>
      <line id="Line_41" data-name="Line 41" x2="51.305" transform="translate(2111.927 326.925)" fill="none" stroke="#50a3ff" stroke-linecap="round" stroke-linejoin="round" stroke-width="9"/>
      <rect id="Rectangle_1154" data-name="Rectangle 1154" width="80.432" height="31.796" transform="translate(2120.157 162.448)" fill="none" stroke="#50a3ff" stroke-linecap="round" stroke-linejoin="round" stroke-width="9"/>
      <path id="Path_1403" data-name="Path 1403" d="M2236.914,343.345A23.22,23.22,0,0,1,2213.8,364.33H2103.67a23.218,23.218,0,0,1-23.217-23.217V198.559a23.217,23.217,0,0,1,23.217-23.217H2119" fill="none" stroke="#50a3ff" stroke-linecap="round" stroke-linejoin="round" stroke-width="9"/>
      <path id="Path_1404" data-name="Path 1404" d="M2200.59,175.342H2213.8a23.217,23.217,0,0,1,23.218,23.217v58.792" fill="none" stroke="#50a3ff" stroke-linecap="round" stroke-linejoin="round" stroke-width="9"/>
      <circle id="Ellipse_8" data-name="Ellipse 8" cx="43.081" cy="43.081" r="43.081" transform="translate(2190.04 257.351)" fill="none" stroke="#ffd100" stroke-linecap="round" stroke-linejoin="round" stroke-width="9"/>
      <line id="Line_42" data-name="Line 42" y1="35.282" x2="35.282" transform="translate(2217.151 284.091)" fill="none" stroke="#ffd100" stroke-linecap="round" stroke-linejoin="round" stroke-width="9"/>
      <line id="Line_43" data-name="Line 43" x2="35.282" y2="35.282" transform="translate(2217.151 284.091)" fill="none" stroke="#ffd100" stroke-linecap="round" stroke-linejoin="round" stroke-width="9"/>
    </g>
  </g>
</svg>
