<svg id="Layer_1" data-name="Layer 1" xmlns="http://www.w3.org/2000/svg" viewBox="0 0 45.39 69.4"><defs><style>.cls-1{fill:#ffd106;}</style></defs><title>ic-agaval-bulb</title><path class="cls-1" d="M23.18,0l-.36,0h-.25l-.36,0C9.93.3,0,9.13,0,19.83a17.48,17.48,0,0,0,1.49,7.06c.58,1.32,1.89,2.9,4.35,5.8,1.25,1.48,2.55,3,3.39,4.16a23.19,23.19,0,0,1,3.88,8,4,4,0,0,0,3.88,3H28.4a4,4,0,0,0,3.88-3,23.37,23.37,0,0,1,3.88-8c.85-1.15,2.14-2.68,3.39-4.16,2.46-2.9,3.77-4.48,4.35-5.8a17.48,17.48,0,0,0,1.49-7.06C45.39,9.13,35.46.3,23.18,0ZM40.24,25.28c-.66,1.49-5.13,6.24-7.3,9.21a27.36,27.36,0,0,0-4.54,9.43H17a27.53,27.53,0,0,0-4.53-9.43c-2.18-3-6.65-7.72-7.31-9.21A13.58,13.58,0,0,1,4,19.83C4,11.16,12.29,4.12,22.57,4h.25c10.28.11,18.57,7.15,18.57,15.82A13.58,13.58,0,0,1,40.24,25.28Z"/><rect class="cls-1" x="13.32" y="49.87" width="18.17" height="3"/><rect class="cls-1" x="13.32" y="54.4" width="18.17" height="3"/><rect class="cls-1" x="13.32" y="58.93" width="18.17" height="3"/><path class="cls-1" d="M22.4,69.4a7.46,7.46,0,0,0,7.31-6H15.1A7.44,7.44,0,0,0,22.4,69.4Z"/><rect class="cls-1" x="20.62" y="27.2" width="0.87" height="18.38"/><rect class="cls-1" x="23.81" y="27.2" width="0.87" height="18.38"/><path class="cls-1" d="M27.5,28a1,1,0,0,1-.68-.27L22.6,23.73l-3.75,3.92a1,1,0,0,1-1.45-1.39l4.45-4.62a1,1,0,0,1,1.4,0l4.93,4.62A1,1,0,0,1,27.5,28Z"/></svg>