<svg xmlns="http://www.w3.org/2000/svg" width="26.029" height="19.28" viewBox="0 0 26.029 19.28">
  <path id="ic-creditos" d="M30.045,24.1H18.24a7.6,7.6,0,0,0,.787-1.928H30.045a.964.964,0,0,1,0,1.928Zm0-2.892H19.213a7.019,7.019,0,0,0,0-1.928H30.045a.964.964,0,0,1,0,1.928Zm0-2.892H19.026a7.633,7.633,0,0,0-.787-1.928H30.045a.964.964,0,0,1,0,1.928Zm0-2.892H17.582A7.721,7.721,0,0,0,15.3,13.5H30.045a.964.964,0,0,1,0,1.928Zm0-2.892H14.621a.964.964,0,0,1,0-1.928H30.045a.964.964,0,0,1,0,1.928Zm0-2.892H14.621a.964.964,0,0,1,0-1.928H30.045a.964.964,0,0,1,0,1.928Zm-11.568,10.6A6.748,6.748,0,1,1,11.729,13.5,6.749,6.749,0,0,1,18.477,20.244Zm-4.359.734a2.061,2.061,0,0,0-.38-.6,2.485,2.485,0,0,0-.536-.44,6.179,6.179,0,0,0-.614-.329q-.305-.14-.614-.274a4.007,4.007,0,0,1-.539-.277,1.358,1.358,0,0,1-.38-.337.728.728,0,0,1-.142-.449.883.883,0,0,1,.063-.33.694.694,0,0,1,.193-.267.934.934,0,0,1,.322-.174,1.447,1.447,0,0,1,.452-.063,2.165,2.165,0,0,1,.608.08,3.477,3.477,0,0,1,.488.18q.211.1.356.182a.5.5,0,0,0,.211.083.148.148,0,0,0,.105-.036.237.237,0,0,0,.06-.115,1.132,1.132,0,0,0,.03-.2c.006-.081.009-.18.009-.3s0-.192-.006-.261a1.365,1.365,0,0,0-.02-.175.547.547,0,0,0-.036-.112.456.456,0,0,0-.082-.1.96.96,0,0,0-.247-.149,2.855,2.855,0,0,0-.427-.161,3.787,3.787,0,0,0-.518-.114c-.038-.006-.076,0-.114-.009v-1h-.949v1a3.476,3.476,0,0,0-.507.105,2.384,2.384,0,0,0-.831.418,2.022,2.022,0,0,0-.56.7,2.471,2.471,0,0,0-.064,1.821,2.069,2.069,0,0,0,.377.605,2.474,2.474,0,0,0,.526.439,5.454,5.454,0,0,0,.608.329c.209.1.412.187.608.274a4.046,4.046,0,0,1,.526.277,1.447,1.447,0,0,1,.377.337.731.731,0,0,1,.145.455,1.012,1.012,0,0,1-.084.417.845.845,0,0,1-.244.313,1.145,1.145,0,0,1-.388.2,1.787,1.787,0,0,1-.519.069,2.714,2.714,0,0,1-.774-.1,3.55,3.55,0,0,1-.576-.221,3.809,3.809,0,0,1-.394-.22.5.5,0,0,0-.238-.1.175.175,0,0,0-.105.033.218.218,0,0,0-.072.112.934.934,0,0,0-.04.205c-.009.085-.013.189-.013.313a2.136,2.136,0,0,0,.033.425.444.444,0,0,0,.112.226,1.283,1.283,0,0,0,.255.179,2.636,2.636,0,0,0,.442.194,4.511,4.511,0,0,0,.611.158,4.064,4.064,0,0,0,.75.065l.035,0v.928h.948V24.139c.045-.012.094-.017.138-.03a2.714,2.714,0,0,0,.916-.467,2.231,2.231,0,0,0,.621-.773,2.41,2.41,0,0,0,.228-1.078,2.1,2.1,0,0,0-.143-.814Zm3.465,4.086H30.045a.964.964,0,0,1,0,1.928H15.3a7.721,7.721,0,0,0,2.284-1.928Z" transform="translate(-4.981 -7.712)"/>
</svg>
