<svg xmlns="http://www.w3.org/2000/svg" width="66.625" height="66.596" viewBox="0 0 66.625 66.596">
  <g id="ic-request-access" transform="translate(-1990.688 -3475.702)">
    <g id="Layer_2" data-name="Layer 2" transform="translate(1990.687 3475.701)">
      <g id="Layer_1" data-name="Layer 1" transform="translate(0.001 0)">
        <path id="data_protection" data-name="data protection" d="M66.52,57.067,61.245,46.522V17.154A5.049,5.049,0,0,0,56.2,12.111H51.818V7.736a1.009,1.009,0,0,0-.645-.94L33.69.066a1.03,1.03,0,0,0-.723,0L15.475,6.8a1.009,1.009,0,0,0-.645.94v4.375H10.456a5.052,5.052,0,0,0-5.034,5.043V46.513L.146,57.058a33.847,33.847,0,0,0-.117,4.5A5.049,5.049,0,0,0,5.072,66.6h56.51a5.049,5.049,0,0,0,5.043-5.043V57.516a1,1,0,0,0-.105-.449ZM34.344,2.479,49.808,8.435V19.845c0,9.749-11.355,17.363-15.471,19.8V28.883c1.561-.148,4.236.6,4.019-1.187L36.877,19.42a5.07,5.07,0,0,0-2.534-8.511ZM33.334,12.825a3.014,3.014,0,0,1,1.823,5.414,1.012,1.012,0,0,0-.377.979l1.371,7.646H30.5l1.368-7.646a1.012,1.012,0,0,0-.377-.979,3.014,3.014,0,0,1,1.838-5.414ZM16.846,8.435,32.319,2.479v8.436a5.07,5.07,0,0,0-2.54,8.511L28.3,27.7c-.217,1.787,2.458,1.039,4.022,1.187V39.659c-4.109-2.41-15.474-9.942-15.474-19.815ZM7.431,17.172a3.013,3.013,0,0,1,3.013-3.013H14.83v5.724c.374,13.627,17.037,22.053,18.5,22.535a1.024,1.024,0,0,0,.458-.108c.735-.377,18.04-9.34,18.04-22.427V14.129H56.2a3.013,3.013,0,0,1,3.013,3.013V45.733H7.431Zm-.389,30.61h52.57l4.372,8.737H2.671ZM64.607,61.571a3.031,3.031,0,0,1-3.013,3.013H5.072a3.013,3.013,0,0,1-3.013-3.013V58.525H64.607ZM28.619,60.556H38.04a1.009,1.009,0,1,1,0,2.019H28.619a1.009,1.009,0,0,1,0-2.019Z" transform="translate(-0.001 0)" fill="#21a3ff"/>
      </g>
    </g>
    <g id="Union_5" data-name="Union 5" transform="translate(2019 3486)" fill="none" stroke-linecap="round">
      <path d="M2,19c-1.1,0-2.374-.442-2-2.182l.951-7.26A5.291,5.291,0,0,1-1,5.5,5.767,5.767,0,0,1,5,0a5.766,5.766,0,0,1,6,5.5,5.292,5.292,0,0,1-1.95,4.058L10,16.818C10.373,18.585,9.1,19,8,19Z" stroke="none"/>
      <path d="M 6.867147922515869 15.99990081787109 L 5.86128044128418 8.316920280456543 L 7.121200561523438 7.259890556335449 C 7.44933032989502 6.98460054397583 7.999800205230713 6.389890193939209 7.999800205230713 5.499900341033936 C 7.999800205230713 4.121450424194336 6.654270172119141 3.000000476837158 5.000400543212891 3.000000476837158 C 3.346030473709106 3.000000476837158 2.000100374221802 4.121450424194336 2.000100374221802 5.499900341033936 C 2.000100374221802 6.389870643615723 2.550500392913818 6.984470367431641 2.878580331802368 7.259700298309326 L 4.138640403747559 8.316730499267578 L 3.132752895355225 15.99990081787109 L 6.867147922515869 15.99990081787109 M 8.000100135803223 18.99990081787109 L 1.999800443649292 18.99990081787109 C 0.8955004215240479 18.99990081787109 -0.3743996024131775 18.5580005645752 4.089355343239731e-07 16.81830024719238 L 0.950520396232605 9.558080673217773 C -0.2481995970010757 8.55250072479248 -0.9998995661735535 7.106710433959961 -0.9998995661735535 5.499900341033936 C -0.9998995661735535 2.462400436401367 1.68660044670105 4.089355343239731e-07 5.000400543212891 4.089355343239731e-07 C 8.313300132751465 4.089355343239731e-07 10.99980068206787 2.462400436401367 10.99980068206787 5.499900341033936 C 10.99980068206787 7.106710433959961 10.24798011779785 8.552590370178223 9.04939079284668 9.558170318603516 L 9.999900817871094 16.81830024719238 C 10.37340068817139 18.58500099182129 9.104400634765625 18.99990081787109 8.000100135803223 18.99990081787109 Z" stroke="none" fill="#ffcf00"/>
    </g>
  </g>
</svg>
