<svg xmlns="http://www.w3.org/2000/svg" width="24.015" height="24" viewBox="0 0 24.015 24">
  <g id="ic-search" transform="translate(0 0)">
    <g id="Group_1489" data-name="Group 1489" transform="translate(0 0)">
      <path id="Path_1275" data-name="Path 1275" d="M-3330,1430a10.045,10.045,0,0,1-10.033-10.033A10.045,10.045,0,0,1-3330,1409.937a10.045,10.045,0,0,1,10.034,10.034A10.045,10.045,0,0,1-3330,1430Zm0-18.536a8.512,8.512,0,0,0-8.5,8.5,8.512,8.512,0,0,0,8.5,8.5,8.513,8.513,0,0,0,8.5-8.5A8.512,8.512,0,0,0-3330,1411.468Z" transform="translate(3340.036 -1409.937)"/>
    </g>
    <g id="Group_1490" data-name="Group 1490" transform="translate(15.829 15.814)">
      <path id="Path_1276" data-name="Path 1276" d="M-3291.256,1459.445a.762.762,0,0,1-.541-.224l-6.656-6.655a.765.765,0,0,1,0-1.083.766.766,0,0,1,1.083,0l6.655,6.655a.766.766,0,0,1,0,1.083A.763.763,0,0,1-3291.256,1459.445Z" transform="translate(3298.677 -1451.259)"/>
    </g>
  </g>
</svg>
