<svg xmlns="http://www.w3.org/2000/svg" width="33.394" height="21.308" viewBox="0 0 33.394 21.308">
  <g id="ic-user-dropdown" transform="translate(-339.099 -30.5)">
    <path id="ic-chevron-dropdown" d="M9,13.5,13.5,18,18,13.5" transform="translate(353.079 25)" fill="none" stroke="#fff" stroke-linecap="round" stroke-linejoin="round" stroke-width="2"/>
    <path id="Union_1" data-name="Union 1" d="M1466.656-2041.692a.658.658,0,0,1-.491-.219.646.646,0,0,1-.16-.51,9.715,9.715,0,0,1,6.624-8.018,6.182,6.182,0,0,1-3.157-5.378,6.217,6.217,0,0,1,6.235-6.185,6.217,6.217,0,0,1,6.234,6.185,6.182,6.182,0,0,1-3.156,5.378,9.715,9.715,0,0,1,6.624,8.018.644.644,0,0,1-.16.51.657.657,0,0,1-.491.219Zm.773-1.3h16.557a8.453,8.453,0,0,0-8.278-6.639A8.453,8.453,0,0,0,1467.429-2042.992Zm3.354-12.824a4.91,4.91,0,0,0,4.924,4.885,4.91,4.91,0,0,0,4.923-4.885,4.91,4.91,0,0,0-4.923-4.884A4.91,4.91,0,0,0,1470.783-2055.815Z" transform="translate(-1126.4 2093)" fill="#fff" stroke="rgba(0,0,0,0)" stroke-miterlimit="10" stroke-width="1"/>
  </g>
</svg>
