<svg xmlns="http://www.w3.org/2000/svg" width="27" height="36" viewBox="0 0 27 36">
  <path id="ico-prueba2" d="M25.313,0H1.688A1.687,1.687,0,0,0,0,1.688V2.813A1.687,1.687,0,0,0,1.688,4.5c0,6.4,3.587,11.794,8.5,13.5-4.91,1.706-8.5,7.1-8.5,13.5A1.687,1.687,0,0,0,0,33.188v1.125A1.687,1.687,0,0,0,1.688,36H25.313A1.687,1.687,0,0,0,27,34.313V33.188A1.687,1.687,0,0,0,25.313,31.5c0-6.4-3.587-11.794-8.5-13.5,4.91-1.706,8.5-7.1,8.5-13.5A1.687,1.687,0,0,0,27,2.813V1.688A1.687,1.687,0,0,0,25.313,0Zm-4.5,31.5H6.188c0-5.446,3.249-10.125,7.313-10.125S20.813,26.052,20.813,31.5Z" fill="#2e2e2e"/>
</svg>
