<svg xmlns="http://www.w3.org/2000/svg" width="31.487" height="27.988" viewBox="0 0 31.487 27.988">
  <path id="ico-prueba3" d="M32.348,7.767A2.614,2.614,0,0,0,29.864,6H10.622A2.63,2.63,0,0,0,8.138,7.767L4.5,18.245V32.239a1.754,1.754,0,0,0,1.749,1.749H8a1.754,1.754,0,0,0,1.749-1.749V30.49H30.739v1.749a1.754,1.754,0,0,0,1.749,1.749h1.749a1.754,1.754,0,0,0,1.749-1.749V18.245L32.348,7.767ZM10.622,25.242a2.624,2.624,0,1,1,2.624-2.624A2.62,2.62,0,0,1,10.622,25.242Zm19.242,0a2.624,2.624,0,1,1,2.624-2.624A2.62,2.62,0,0,1,29.864,25.242ZM8,16.5l2.624-7.872H29.864L32.488,16.5Z" transform="translate(-4.5 -6)" fill="#2e2e2e"/>
</svg>
