<svg xmlns="http://www.w3.org/2000/svg" width="14.23" height="16.263" viewBox="0 0 14.23 16.263">
  <path id="ico2" d="M1.835,9.148H4.451a4,4,0,0,0,5.327,0H12.4a.508.508,0,0,0,.454-.736A21.468,21.468,0,0,1,11.51,5.377a7.372,7.372,0,0,1-.329-2.29V1.525L7.115,0,3.049,1.525V3.087a7.362,7.362,0,0,1-.328,2.29A21.5,21.5,0,0,1,1.382,8.412a.508.508,0,0,0,.454.736ZM5.845,2.277A.159.159,0,0,1,6,2.118h.688V1.429a.159.159,0,0,1,.159-.159H7.38a.159.159,0,0,1,.159.159v.688h.688a.159.159,0,0,1,.159.159v.529a.159.159,0,0,1-.159.159H7.539v.688a.159.159,0,0,1-.159.159H6.851a.159.159,0,0,1-.159-.159V2.965H6a.159.159,0,0,1-.159-.159ZM4.574,5.082H9.656V6.1a2.541,2.541,0,0,1-5.082,0Zm5.572,5.082-3.031,3.03-3.031-3.03A4.259,4.259,0,0,0,0,14.414a1.849,1.849,0,0,0,1.849,1.849H12.381a1.849,1.849,0,0,0,1.849-1.849A4.259,4.259,0,0,0,10.146,10.165Z"/>
</svg>
