<svg xmlns="http://www.w3.org/2000/svg" width="14.23" height="14.23" viewBox="0 0 14.23 14.23">
  <path id="ico4" d="M7.981,9.937a.889.889,0,1,0,.889.889A.89.89,0,0,0,7.981,9.937Zm4.269,0a.889.889,0,1,0,.889.889A.89.89,0,0,0,12.25,9.937ZM10.115,3a7.115,7.115,0,1,0,7.115,7.115A7.118,7.118,0,0,0,10.115,3Zm0,12.807a5.7,5.7,0,0,1-5.692-5.692A5.769,5.769,0,0,1,4.459,9.5,7.159,7.159,0,0,0,8.166,5.682a7.1,7.1,0,0,0,5.806,3.01,6.945,6.945,0,0,0,1.6-.185,5.683,5.683,0,0,1-5.457,7.3Z" transform="translate(-3 -3)"/>
</svg>
