<svg xmlns="http://www.w3.org/2000/svg" width="13.5" height="18" viewBox="0 0 13.5 18">
  <path id="ico5" d="M11.812,5.625H1.687A1.687,1.687,0,0,0,0,7.312v7.875a1.687,1.687,0,0,0,1.687,1.687H2.25v.562A.562.562,0,0,0,2.812,18H3.937a.562.562,0,0,0,.562-.562v-.562H9v.562A.562.562,0,0,0,9.562,18h1.125a.562.562,0,0,0,.562-.562v-.562h.562A1.687,1.687,0,0,0,13.5,15.187V7.312A1.687,1.687,0,0,0,11.812,5.625Zm-.562,7.594a.281.281,0,0,1-.281.281H2.531a.281.281,0,0,1-.281-.281v-.562a.281.281,0,0,1,.281-.281h8.437a.281.281,0,0,1,.281.281Zm0-3.375a.281.281,0,0,1-.281.281H2.531a.281.281,0,0,1-.281-.281V9.281A.281.281,0,0,1,2.531,9h8.437a.281.281,0,0,1,.281.281ZM5.062,1.687H8.437V4.5h1.687V1.687A1.687,1.687,0,0,0,8.437,0H5.062A1.687,1.687,0,0,0,3.375,1.687V4.5H5.062Z"/>
</svg>
