<svg xmlns="http://www.w3.org/2000/svg" width="18.5" height="21.143" viewBox="0 0 18.5 21.143">
  <path id="icon-percent" d="M4.625,9.25A4.625,4.625,0,1,0,0,4.625,4.623,4.623,0,0,0,4.625,9.25Zm0-6.607A1.982,1.982,0,1,1,2.643,4.625,1.983,1.983,0,0,1,4.625,2.643Zm9.25,9.25A4.625,4.625,0,1,0,18.5,16.518,4.623,4.623,0,0,0,13.875,11.893Zm0,6.607a1.982,1.982,0,1,1,1.982-1.982A1.983,1.983,0,0,1,13.875,18.5ZM16.2.008l1.3,0a.991.991,0,0,1,.814,1.561L3.2,20.713a.989.989,0,0,1-.809.421l-1.379,0a.991.991,0,0,1-.814-1.561L15.391.429A.989.989,0,0,1,16.2.008Z"/>
</svg>
