<?xml version="1.0" encoding="utf-8"?>
<svg version="1.1" id="Layer_1" xmlns="http://www.w3.org/2000/svg" xmlns:xlink="http://www.w3.org/1999/xlink" x="0px" y="0px"
	 viewBox="0 0 14 32" style="enable-background:new 0 0 14 32;" xml:space="preserve">
<style type="text/css">
	.st0{enable-background:new    ;}
	.st1{fill:#FFFFFF;}
</style>
<g class="st0">
	<path class="st1" d="M9.3,20.5c0-0.6-0.2-1.2-0.5-1.5s-1-0.7-1.8-1s-1.6-0.6-2.2-1s-1.1-0.7-1.6-1.1s-0.8-0.9-1-1.4s-0.4-1.2-0.4-2
		c0-1.3,0.4-2.4,1.3-3.2s2-1.3,3.4-1.5V5.2h1.9v2.5c1.4,0.2,2.5,0.8,3.2,1.7s1.2,2.2,1.2,3.7H9.3c0-0.9-0.2-1.6-0.6-2.1
		s-0.9-0.7-1.6-0.7c-0.6,0-1.1,0.2-1.5,0.5s-0.5,0.9-0.5,1.5c0,0.6,0.2,1.1,0.5,1.4s1,0.7,1.9,1.1s1.7,0.7,2.3,1.1s1.1,0.7,1.5,1.1
		s0.7,0.9,0.9,1.4s0.3,1.2,0.3,1.9c0,1.3-0.4,2.4-1.2,3.2S9.4,25,8,25.2v2.3H6.1v-2.3c-1.6-0.2-2.8-0.7-3.7-1.7s-1.3-2.2-1.3-3.8
		h3.4c0,0.9,0.2,1.6,0.7,2.1s1.1,0.7,1.9,0.7c0.7,0,1.2-0.2,1.6-0.5S9.3,21.1,9.3,20.5z"/>
</g>
</svg>
