<svg id="svg" version="1.1" xmlns="http://www.w3.org/2000/svg" xmlns:xlink="http://www.w3.org/1999/xlink" width="400" height="400" viewBox="0, 0, 400,400"><g id="svgg"><path id="path0" d="M133.227 0.312 C 129.750 0.384,127.641 0.596,127.250 0.912 C 126.772 1.298,126.709 1.296,126.947 0.900 C 127.138 0.582,127.011 0.400,126.600 0.400 C 126.244 0.400,126.045 0.550,126.159 0.733 C 126.272 0.917,126.111 1.067,125.800 1.067 C 125.489 1.067,125.328 0.917,125.441 0.733 C 125.555 0.550,125.472 0.400,125.257 0.400 C 125.042 0.400,124.807 0.576,124.733 0.792 C 124.660 1.007,123.295 1.210,121.700 1.242 C 120.105 1.275,118.800 1.458,118.800 1.651 C 118.800 1.843,118.181 2.000,117.424 2.000 C 116.667 2.000,115.936 2.180,115.800 2.400 C 115.664 2.620,115.338 2.797,115.076 2.794 C 114.790 2.790,114.839 2.633,115.200 2.400 C 115.713 2.069,115.698 2.011,115.100 2.006 C 114.715 2.003,114.400 2.180,114.400 2.400 C 114.400 2.620,113.410 2.800,112.200 2.800 C 110.990 2.800,110.000 2.980,110.000 3.200 C 110.000 3.420,109.280 3.600,108.400 3.600 C 107.520 3.600,106.800 3.780,106.800 4.000 C 106.800 4.220,106.080 4.400,105.200 4.400 C 104.320 4.400,103.600 4.580,103.600 4.800 C 103.600 5.020,102.970 5.200,102.200 5.200 C 101.430 5.200,100.800 5.380,100.800 5.600 C 100.800 5.820,100.440 6.000,100.000 6.000 C 99.560 6.000,99.200 6.180,99.200 6.400 C 99.200 6.620,98.390 6.800,97.400 6.800 C 96.410 6.800,95.600 6.980,95.600 7.200 C 95.600 7.420,95.161 7.600,94.624 7.600 C 94.087 7.600,93.536 7.780,93.400 8.000 C 93.264 8.220,92.713 8.400,92.176 8.400 C 91.639 8.400,91.200 8.574,91.200 8.787 C 91.200 9.001,90.932 9.072,90.603 8.946 C 90.269 8.818,89.903 8.986,89.772 9.329 C 89.642 9.669,89.198 9.877,88.777 9.796 C 88.359 9.715,87.912 9.818,87.785 10.025 C 87.657 10.231,87.113 10.400,86.576 10.400 C 86.039 10.400,85.600 10.559,85.600 10.753 C 85.600 10.948,85.195 11.236,84.700 11.394 C 83.180 11.880,83.043 11.928,81.600 12.472 C 80.830 12.762,80.060 13.218,79.889 13.483 C 79.719 13.749,79.337 13.874,79.041 13.760 C 78.745 13.647,78.391 13.846,78.254 14.202 C 78.118 14.559,77.824 14.739,77.603 14.602 C 77.381 14.465,77.200 14.543,77.200 14.776 C 77.200 15.009,76.951 15.200,76.646 15.200 C 75.680 15.200,73.889 16.293,74.472 16.526 C 74.762 16.642,74.370 16.754,73.600 16.775 C 72.542 16.803,72.347 16.907,72.800 17.200 C 73.271 17.504,73.172 17.589,72.343 17.594 C 71.757 17.597,71.178 17.879,71.046 18.225 C 70.914 18.569,70.657 18.759,70.476 18.647 C 70.294 18.535,69.893 18.793,69.585 19.221 C 69.276 19.650,68.600 20.000,68.083 20.000 C 67.095 20.000,65.862 20.928,66.286 21.352 C 66.493 21.560,66.007 21.648,64.985 21.587 C 64.867 21.580,64.311 22.120,63.749 22.787 C 63.123 23.532,62.349 24.000,61.746 24.000 C 60.691 24.000,58.668 25.714,59.124 26.221 C 59.276 26.390,59.105 26.422,58.744 26.293 C 58.374 26.161,57.727 26.395,57.261 26.829 C 56.806 27.253,56.246 27.600,56.017 27.600 C 55.788 27.600,55.600 27.780,55.600 28.000 C 55.600 28.220,55.412 28.400,55.182 28.400 C 54.952 28.400,54.314 28.850,53.764 29.400 C 53.214 29.950,52.588 30.400,52.373 30.400 C 52.159 30.400,51.778 30.850,51.527 31.400 C 51.255 31.998,50.735 32.402,50.236 32.406 C 49.550 32.411,49.507 32.482,50.000 32.800 C 50.483 33.112,50.419 33.189,49.676 33.194 C 49.164 33.197,48.863 33.378,49.000 33.600 C 49.136 33.820,48.877 34.000,48.424 34.000 C 47.971 34.000,47.600 34.180,47.600 34.400 C 47.600 34.620,47.342 34.800,47.027 34.800 C 46.712 34.800,46.340 35.160,46.200 35.600 C 46.060 36.040,45.688 36.400,45.373 36.400 C 44.847 36.400,44.618 36.899,44.763 37.730 C 44.794 37.911,44.672 37.968,44.491 37.856 C 44.310 37.744,43.900 37.818,43.581 38.020 C 43.078 38.339,43.080 38.389,43.600 38.400 C 43.942 38.407,43.770 38.638,43.200 38.939 C 42.650 39.228,42.245 39.676,42.300 39.933 C 42.355 40.190,42.212 40.400,41.982 40.400 C 41.752 40.400,41.148 40.805,40.641 41.300 C 40.133 41.795,39.234 42.610,38.642 43.112 C 38.051 43.613,37.675 44.198,37.807 44.412 C 37.939 44.625,37.666 44.800,37.200 44.800 C 36.734 44.800,36.464 44.980,36.600 45.200 C 36.736 45.420,36.644 45.600,36.395 45.600 C 35.815 45.600,34.800 46.610,34.800 47.187 C 34.800 47.432,34.080 48.337,33.200 49.200 C 32.320 50.063,31.600 50.966,31.600 51.208 C 31.600 51.449,31.465 51.565,31.300 51.466 C 31.008 51.289,29.975 52.178,29.992 52.592 C 30.037 53.713,29.940 54.010,29.600 53.800 C 29.233 53.573,29.022 54.120,29.163 54.930 C 29.194 55.111,29.050 55.154,28.842 55.026 C 28.319 54.702,27.200 55.901,27.200 56.786 C 27.200 57.187,26.919 57.622,26.575 57.754 C 26.231 57.886,26.064 58.180,26.204 58.407 C 26.345 58.634,26.221 58.770,25.930 58.710 C 25.638 58.649,25.424 58.910,25.454 59.288 C 25.483 59.666,25.168 60.083,24.754 60.215 C 24.339 60.346,24.000 60.722,24.000 61.051 C 24.000 61.379,23.820 61.536,23.600 61.400 C 23.380 61.264,23.200 61.523,23.200 61.976 C 23.200 62.429,23.020 62.800,22.800 62.800 C 22.580 62.800,22.400 63.081,22.400 63.424 C 22.400 63.793,22.212 63.931,21.938 63.762 C 21.664 63.593,21.585 63.651,21.742 63.906 C 21.888 64.142,21.736 64.607,21.404 64.939 C 21.072 65.271,20.800 65.946,20.800 66.438 C 20.800 66.930,20.689 67.222,20.552 67.086 C 20.106 66.640,19.200 67.919,19.200 68.995 C 19.200 69.595,19.028 69.941,18.800 69.800 C 18.580 69.664,18.400 69.794,18.400 70.088 C 18.400 70.383,18.040 70.883,17.600 71.200 C 17.160 71.517,16.800 72.097,16.800 72.488 C 16.800 72.880,16.620 73.200,16.400 73.200 C 16.180 73.200,16.000 73.545,16.000 73.967 C 16.000 74.388,15.865 74.793,15.700 74.867 C 15.260 75.062,13.600 78.378,13.600 79.061 C 13.600 79.384,13.420 79.536,13.200 79.400 C 12.980 79.264,12.800 79.513,12.800 79.953 C 12.800 80.393,12.620 80.864,12.400 81.000 C 12.180 81.136,12.000 81.607,12.000 82.047 C 12.000 82.546,11.828 82.741,11.542 82.564 C 11.227 82.369,11.146 82.605,11.283 83.321 C 11.392 83.893,11.308 84.324,11.095 84.280 C 10.883 84.236,10.636 84.636,10.547 85.169 C 10.457 85.701,10.163 86.411,9.892 86.745 C 9.485 87.248,9.504 87.294,10.000 87.008 C 10.357 86.802,10.276 87.042,9.800 87.600 C 9.360 88.116,9.225 88.406,9.500 88.245 C 9.775 88.084,10.000 88.143,10.000 88.376 C 10.000 88.609,9.711 88.800,9.357 88.800 C 8.975 88.800,8.800 89.024,8.926 89.351 C 9.042 89.654,8.927 90.131,8.669 90.410 C 8.302 90.807,8.330 90.848,8.800 90.600 C 9.288 90.342,9.306 90.384,8.900 90.821 C 8.625 91.118,8.397 91.729,8.394 92.180 C 8.389 92.856,8.320 92.895,8.000 92.400 C 7.628 91.824,7.373 93.185,7.570 94.700 C 7.606 94.975,7.447 95.200,7.218 95.200 C 6.988 95.200,6.800 95.470,6.800 95.800 C 6.800 96.130,6.643 96.400,6.450 96.400 C 6.136 96.400,5.995 97.236,5.962 99.300 C 5.955 99.685,5.781 100.000,5.575 100.000 C 5.369 100.000,5.200 100.450,5.200 101.000 C 5.200 101.550,5.043 102.000,4.850 102.000 C 4.658 102.000,4.500 102.470,4.500 103.045 C 4.500 103.621,4.253 104.264,3.950 104.476 C 3.524 104.774,3.513 104.907,3.900 105.064 C 4.175 105.175,4.400 105.442,4.400 105.657 C 4.400 105.872,4.220 105.936,4.000 105.800 C 3.774 105.660,3.600 105.988,3.600 106.553 C 3.600 107.103,3.420 107.664,3.200 107.800 C 2.980 107.936,2.800 109.027,2.800 110.224 C 2.800 111.421,2.620 112.400,2.400 112.400 C 2.180 112.400,2.000 113.030,2.000 113.800 C 2.000 114.570,1.844 115.200,1.653 115.200 C 1.462 115.200,1.282 116.224,1.253 117.476 C 1.223 118.746,0.990 119.882,0.726 120.046 C 0.362 120.271,0.366 120.477,0.742 120.931 C 1.132 121.400,1.127 121.558,0.717 121.694 C 0.307 121.831,0.186 125.369,0.134 138.833 C 0.067 156.271,0.230 161.352,0.846 160.971 C 1.041 160.851,1.200 161.044,1.200 161.400 C 1.200 161.756,1.020 161.936,0.800 161.800 C 0.580 161.664,0.400 161.833,0.400 162.176 C 0.400 162.519,0.580 162.800,0.800 162.800 C 1.020 162.800,1.213 163.745,1.228 164.900 C 1.249 166.442,1.348 166.788,1.600 166.200 C 1.850 165.617,1.968 166.052,2.033 167.800 C 2.145 170.819,2.155 170.894,2.537 171.505 C 2.711 171.783,2.869 172.555,2.888 173.220 C 2.907 173.885,3.075 174.523,3.261 174.638 C 3.448 174.753,3.600 175.452,3.600 176.190 C 3.600 176.929,3.798 177.599,4.040 177.680 C 4.282 177.761,4.480 178.496,4.480 179.313 C 4.480 180.131,4.642 180.800,4.840 180.800 C 5.038 180.800,5.200 181.070,5.200 181.400 C 5.200 181.730,5.345 182.000,5.522 182.000 C 5.699 182.000,5.888 182.765,5.942 183.700 C 5.996 184.635,6.211 185.460,6.420 185.533 C 6.629 185.607,6.800 186.192,6.800 186.833 C 6.800 187.475,6.980 188.000,7.200 188.000 C 7.420 188.000,7.600 188.497,7.600 189.104 C 7.600 189.762,7.912 190.403,8.374 190.691 C 8.883 191.009,9.135 191.594,9.112 192.406 C 9.093 193.083,9.285 193.845,9.539 194.099 C 9.792 194.352,10.000 194.974,10.000 195.480 C 10.000 195.986,10.163 196.400,10.363 196.400 C 10.562 196.400,10.631 196.760,10.516 197.200 C 10.399 197.647,10.504 198.000,10.753 198.000 C 10.999 198.000,11.200 198.281,11.200 198.624 C 11.200 198.967,11.380 199.136,11.600 199.000 C 11.834 198.855,12.000 199.270,12.000 200.000 C 12.000 200.730,12.166 201.145,12.400 201.000 C 12.620 200.864,12.800 201.147,12.800 201.629 C 12.800 202.112,13.172 202.829,13.626 203.223 C 14.081 203.617,14.441 204.043,14.426 204.170 C 14.301 205.268,14.470 206.004,14.800 205.800 C 15.026 205.660,15.200 205.987,15.200 206.549 C 15.200 207.215,15.483 207.636,16.053 207.817 C 16.723 208.029,16.787 208.163,16.353 208.438 C 15.954 208.690,15.939 208.789,16.300 208.794 C 16.575 208.797,16.800 209.160,16.800 209.600 C 16.800 210.040,16.958 210.400,17.151 210.400 C 17.345 210.400,17.727 210.940,18.000 211.600 C 18.273 212.260,18.655 212.800,18.849 212.800 C 19.042 212.800,19.200 213.160,19.200 213.600 C 19.200 214.040,19.380 214.400,19.600 214.400 C 19.820 214.400,20.000 214.760,20.000 215.200 C 20.000 215.891,20.361 216.151,21.215 216.076 C 21.333 216.065,21.468 216.518,21.515 217.081 C 21.562 217.645,21.960 218.418,22.400 218.800 C 22.840 219.182,23.200 219.776,23.200 220.120 C 23.200 220.464,23.560 220.860,24.000 221.000 C 24.440 221.140,24.800 221.593,24.800 222.006 C 24.800 222.420,25.250 223.244,25.800 223.838 C 26.350 224.431,26.800 225.044,26.800 225.199 C 26.800 225.354,27.340 226.046,28.000 226.737 C 28.660 227.428,29.200 228.162,29.200 228.369 C 29.200 228.577,29.563 228.861,30.006 229.002 C 30.449 229.143,30.708 229.425,30.582 229.629 C 30.456 229.833,30.573 230.000,30.843 230.000 C 31.113 230.000,31.224 230.109,31.091 230.242 C 30.958 230.376,31.288 230.924,31.824 231.461 C 32.361 231.997,32.800 232.581,32.800 232.757 C 32.800 233.248,34.074 234.585,35.300 235.379 C 35.905 235.771,36.400 236.352,36.400 236.670 C 36.400 236.987,36.580 237.136,36.800 237.000 C 37.020 236.864,37.200 236.956,37.200 237.203 C 37.200 237.708,42.002 242.400,42.517 242.400 C 42.699 242.400,42.736 242.580,42.600 242.800 C 42.464 243.020,42.639 243.200,42.989 243.200 C 43.339 243.200,43.744 243.515,43.890 243.900 C 44.228 244.792,44.728 245.260,46.100 245.968 C 46.705 246.280,47.200 246.834,47.200 247.200 C 47.200 247.566,47.695 248.120,48.300 248.432 C 48.905 248.745,50.061 249.675,50.869 250.500 C 51.676 251.325,52.621 252.000,52.969 252.000 C 53.316 252.000,53.600 252.168,53.600 252.373 C 53.600 252.578,53.960 252.860,54.400 253.000 C 54.840 253.140,55.200 253.512,55.200 253.827 C 55.200 254.142,55.425 254.400,55.700 254.401 C 55.975 254.401,56.830 254.941,57.600 255.600 C 58.370 256.259,59.315 256.799,59.700 256.799 C 60.085 256.800,60.400 257.059,60.400 257.376 C 60.400 257.693,60.578 258.063,60.795 258.197 C 61.027 258.340,61.086 258.168,60.937 257.781 C 60.715 257.202,60.788 257.186,61.524 257.645 C 61.986 257.934,62.290 258.243,62.201 258.332 C 61.933 258.601,63.101 259.600,63.683 259.600 C 63.980 259.600,64.483 259.960,64.800 260.400 C 65.117 260.840,65.631 261.200,65.941 261.200 C 66.252 261.200,66.797 261.515,67.153 261.900 C 67.509 262.285,68.070 262.659,68.400 262.730 C 68.730 262.802,69.060 263.027,69.133 263.230 C 69.207 263.434,69.524 263.600,69.839 263.600 C 70.465 263.600,71.872 264.328,72.687 265.074 C 72.972 265.334,73.564 265.662,74.002 265.801 C 74.441 265.940,74.800 266.230,74.800 266.444 C 74.800 266.659,75.025 266.806,75.300 266.770 C 76.317 266.638,76.840 266.811,76.600 267.200 C 76.464 267.420,76.598 267.600,76.897 267.600 C 77.651 267.600,79.593 268.535,79.597 268.900 C 79.599 269.065,80.050 269.200,80.600 269.200 C 81.150 269.200,81.600 269.380,81.600 269.600 C 81.600 269.820,81.960 270.000,82.400 270.000 C 82.840 270.000,83.200 270.180,83.200 270.400 C 83.200 270.620,83.560 270.800,84.000 270.800 C 84.440 270.800,84.800 270.980,84.800 271.200 C 84.800 271.420,85.441 271.600,86.224 271.600 C 87.071 271.600,87.547 271.762,87.400 272.000 C 87.264 272.220,87.513 272.400,87.953 272.400 C 88.393 272.400,88.864 272.580,89.000 272.800 C 89.136 273.020,89.687 273.200,90.224 273.200 C 90.761 273.200,91.200 273.340,91.200 273.511 C 91.200 273.841,95.418 275.200,96.440 275.200 C 96.770 275.200,97.263 275.423,97.537 275.697 C 97.932 276.092,98.110 276.072,98.411 275.597 C 98.662 275.198,98.790 275.166,98.794 275.500 C 98.797 275.775,99.160 276.000,99.600 276.000 C 100.040 276.000,100.400 276.141,100.400 276.313 C 100.400 276.485,100.885 276.666,101.478 276.715 C 102.070 276.764,102.655 276.957,102.778 277.144 C 102.900 277.331,103.626 277.499,104.392 277.518 C 105.158 277.536,105.848 277.743,105.925 277.976 C 106.003 278.209,106.761 278.400,107.610 278.400 C 108.458 278.400,109.242 278.544,109.351 278.720 C 109.460 278.896,110.321 279.086,111.264 279.142 C 112.207 279.197,113.105 279.447,113.259 279.696 C 113.460 280.021,113.738 279.987,114.246 279.574 C 114.688 279.215,114.841 279.188,114.653 279.500 C 114.433 279.867,114.784 280.000,115.976 280.000 C 116.869 280.000,117.600 280.143,117.600 280.318 C 117.600 280.492,118.814 280.680,120.297 280.735 C 121.781 280.790,123.167 281.007,123.377 281.217 C 123.883 281.723,124.515 281.710,124.200 281.200 C 124.064 280.980,124.133 280.800,124.353 280.800 C 124.573 280.800,124.864 280.980,125.000 281.200 C 125.136 281.420,126.842 281.600,128.790 281.600 C 131.250 281.600,132.395 281.753,132.535 282.100 C 132.696 282.500,132.743 282.500,132.768 282.100 C 132.786 281.825,133.081 281.600,133.424 281.600 C 133.767 281.600,133.936 281.780,133.800 282.000 C 133.662 282.223,133.961 282.397,134.476 282.394 C 135.219 282.389,135.283 282.312,134.800 282.000 C 134.361 281.716,134.663 281.611,135.924 281.606 C 136.972 281.602,137.550 281.757,137.400 282.000 C 137.242 282.255,138.470 282.400,140.800 282.400 C 143.130 282.400,144.358 282.255,144.200 282.000 C 144.064 281.780,143.423 281.600,142.776 281.600 C 142.129 281.600,141.600 281.428,141.600 281.218 C 141.600 281.008,140.925 280.726,140.100 280.592 C 132.969 279.429,118.820 275.308,112.400 272.525 C 111.630 272.192,110.640 271.773,110.200 271.595 C 80.910 259.772,54.059 234.392,38.844 204.148 C 37.280 201.039,36.000 198.382,36.000 198.243 C 36.000 198.105,35.640 197.183,35.200 196.196 C 34.760 195.208,34.040 193.592,33.600 192.604 C 33.160 191.617,32.800 190.651,32.800 190.458 C 32.800 190.265,32.461 189.228,32.046 188.153 C 31.631 187.079,30.890 184.850,30.398 183.200 C 29.906 181.550,29.359 179.750,29.183 179.200 C 22.691 158.907,22.469 128.675,28.639 105.200 C 29.617 101.480,29.795 100.870,30.970 97.200 C 36.245 80.740,46.458 62.389,57.340 49.821 C 61.881 44.576,62.787 43.620,67.600 38.993 C 80.581 26.512,94.498 17.290,110.600 10.499 C 119.797 6.620,132.880 2.744,141.300 1.403 C 143.785 1.007,143.298 -0.068,140.700 0.080 C 139.545 0.146,136.182 0.250,133.227 0.312 M120.086 185.000 C 120.895 185.550,121.699 186.000,121.872 186.000 C 122.044 186.000,121.523 185.550,120.714 185.000 C 119.905 184.450,119.101 184.000,118.928 184.000 C 118.756 184.000,119.277 184.450,120.086 185.000 M313.200 280.688 C 309.842 283.564,308.400 285.214,308.400 286.184 C 308.400 287.733,287.976 308.192,286.750 307.871 C 285.981 307.670,281.299 311.634,281.452 312.355 C 281.481 312.490,281.346 313.017,281.152 313.526 C 280.664 314.811,280.712 315.745,281.300 316.379 C 281.704 316.814,281.693 316.856,281.238 316.597 C 280.829 316.363,280.768 316.424,281.013 316.822 C 282.085 318.555,286.620 323.200,287.241 323.200 C 287.512 323.200,287.617 323.317,287.474 323.459 C 287.124 323.809,288.811 325.241,289.252 324.968 C 289.443 324.850,289.600 325.033,289.600 325.376 C 289.600 325.719,289.900 326.000,290.267 326.000 C 290.633 326.000,290.820 326.114,290.681 326.253 C 290.542 326.392,290.955 326.998,291.600 327.600 C 292.245 328.202,292.658 328.808,292.519 328.947 C 292.380 329.086,292.567 329.200,292.933 329.200 C 293.300 329.200,293.600 329.361,293.600 329.558 C 293.600 329.964,295.840 332.450,296.179 332.420 C 296.301 332.409,296.445 332.520,296.500 332.666 C 296.650 333.064,301.585 338.000,301.833 338.000 C 301.951 338.000,301.936 337.820,301.800 337.600 C 301.398 336.949,301.857 337.144,302.451 337.877 C 302.824 338.337,302.840 338.457,302.500 338.253 C 302.225 338.088,302.000 338.066,302.000 338.205 C 302.000 338.644,303.123 339.600,303.638 339.600 C 303.910 339.600,304.022 339.711,303.886 339.848 C 303.473 340.260,304.757 341.273,305.297 340.961 C 305.574 340.802,305.674 340.812,305.519 340.983 C 305.147 341.397,306.175 342.400,306.971 342.400 C 307.347 342.400,307.613 342.762,307.632 343.300 C 307.649 343.795,307.753 343.977,307.864 343.704 C 308.131 343.041,309.200 344.074,309.200 344.995 C 309.200 345.354,309.367 345.544,309.571 345.418 C 309.775 345.292,310.069 345.588,310.224 346.076 C 310.582 347.205,311.417 348.045,312.043 347.907 C 312.310 347.848,312.662 348.250,312.825 348.800 C 312.987 349.350,313.138 349.685,313.160 349.543 C 313.202 349.277,317.600 353.554,317.600 353.862 C 317.600 354.211,319.421 355.846,320.101 356.107 C 320.485 356.254,320.800 356.573,320.800 356.816 C 320.800 357.727,322.107 358.607,323.700 358.769 C 323.865 358.786,324.003 359.205,324.006 359.700 C 324.011 360.428,324.086 360.485,324.400 360.000 C 324.718 359.508,324.789 359.550,324.794 360.238 C 324.800 361.125,325.943 362.400,326.731 362.400 C 326.989 362.400,327.171 362.535,327.136 362.700 C 327.003 363.333,327.712 364.400,328.266 364.400 C 328.586 364.400,328.765 364.535,328.666 364.700 C 328.566 364.865,328.722 365.220,329.013 365.488 C 329.429 365.873,329.583 365.873,329.739 365.488 C 329.848 365.220,329.951 365.435,329.968 365.967 C 329.986 366.498,330.107 366.826,330.238 366.696 C 330.517 366.417,333.980 370.012,333.999 370.600 C 334.006 370.820,334.187 370.730,334.400 370.400 C 334.728 369.892,334.789 369.912,334.794 370.529 C 334.801 371.344,335.704 372.400,336.395 372.400 C 336.644 372.400,336.717 372.611,336.558 372.868 C 336.362 373.185,336.489 373.251,336.955 373.073 C 337.382 372.909,337.544 372.967,337.384 373.226 C 337.242 373.455,337.531 373.993,338.024 374.421 C 339.059 375.319,339.376 375.414,338.947 374.700 C 338.599 374.121,339.731 374.958,341.111 376.300 C 341.620 376.795,341.841 377.200,341.602 377.200 C 341.330 377.200,341.360 377.407,341.684 377.758 C 341.968 378.065,342.366 378.215,342.568 378.092 C 342.770 377.969,342.821 378.168,342.681 378.534 C 342.512 378.973,342.630 379.200,343.025 379.200 C 343.355 379.200,343.746 379.515,343.893 379.899 C 344.336 381.051,345.912 382.448,346.139 381.889 C 346.248 381.620,346.362 381.760,346.392 382.200 C 346.423 382.640,347.422 383.810,348.613 384.800 C 349.804 385.790,350.783 386.731,350.789 386.891 C 350.799 387.160,354.358 390.746,355.759 391.900 C 356.093 392.175,356.689 392.403,357.083 392.406 C 357.692 392.411,357.710 392.471,357.200 392.800 C 356.715 393.114,356.772 393.189,357.500 393.194 C 358.131 393.198,358.400 393.439,358.400 394.000 C 358.400 394.554,358.667 394.800,359.267 394.800 C 359.743 394.800,360.022 394.911,359.886 395.048 C 359.471 395.462,360.686 396.400,361.638 396.400 C 362.130 396.400,362.416 396.517,362.273 396.661 C 361.973 396.960,363.816 398.000,364.646 398.000 C 364.951 398.000,365.200 398.141,365.200 398.313 C 365.200 398.485,365.685 398.666,366.278 398.715 C 366.870 398.764,367.500 399.028,367.678 399.302 C 367.931 399.693,368.075 399.683,368.352 399.255 C 368.620 398.839,368.742 398.827,368.868 399.205 C 369.084 399.853,380.509 399.874,380.724 399.227 C 380.803 398.992,381.392 398.800,382.033 398.800 C 382.675 398.800,383.200 398.620,383.200 398.400 C 383.200 398.180,383.571 398.000,384.024 398.000 C 384.477 398.000,384.736 397.820,384.600 397.600 C 384.460 397.373,384.796 397.200,385.376 397.200 C 385.939 397.200,386.400 397.020,386.400 396.800 C 386.400 396.580,386.683 396.400,387.029 396.400 C 387.374 396.400,387.914 396.143,388.229 395.829 C 388.847 395.210,388.981 394.746,388.500 394.889 C 388.189 394.981,387.931 394.833,383.600 392.078 C 381.680 390.856,371.035 380.454,342.874 352.281 L 304.747 314.137 304.874 312.501 C 304.993 310.955,305.577 310.271,315.400 300.178 C 327.080 288.177,326.554 288.927,324.627 287.000 C 323.842 286.215,323.200 285.380,323.200 285.144 C 323.200 284.908,322.915 284.824,322.567 284.957 C 322.164 285.112,321.994 285.018,322.101 284.700 C 322.297 284.116,318.926 280.800,318.136 280.800 C 317.841 280.800,317.600 280.628,317.600 280.417 C 317.600 279.857,313.905 280.085,313.200 280.688 M336.596 299.196 C 337.226 299.854,337.819 300.314,337.913 300.220 C 338.122 300.012,336.156 298.000,335.743 298.000 C 335.582 298.000,335.966 298.538,336.596 299.196 M352.000 314.618 C 352.000 314.738,352.450 315.286,353.000 315.836 C 354.159 316.995,354.360 316.538,353.253 315.261 C 352.535 314.434,352.000 314.159,352.000 314.618 M365.839 328.556 C 365.961 328.876,366.344 329.246,366.688 329.378 C 367.663 329.752,367.614 329.469,366.568 328.687 C 365.851 328.150,365.670 328.118,365.839 328.556 M368.800 331.112 C 368.800 331.304,369.250 331.883,369.800 332.400 C 370.350 332.917,370.800 333.210,370.800 333.052 C 370.800 332.893,370.350 332.314,369.800 331.764 C 369.250 331.214,368.800 330.920,368.800 331.112 M386.596 349.196 C 387.226 349.854,387.819 350.314,387.913 350.220 C 388.122 350.012,386.156 348.000,385.743 348.000 C 385.582 348.000,385.966 348.538,386.596 349.196 " stroke="none" fill="#9cacbc" fill-rule="evenodd"></path><path id="path1" d="M112.800 181.615 C 111.367 182.087,108.966 182.668,106.200 183.213 C 104.880 183.473,103.350 183.824,102.800 183.993 C 102.250 184.162,100.810 184.515,99.600 184.776 C 98.390 185.037,96.500 185.447,95.400 185.686 C 83.317 188.314,73.796 196.390,70.019 207.215 C 68.140 212.600,67.284 223.883,68.659 225.144 C 71.923 228.137,83.009 236.000,83.964 236.000 C 84.190 236.000,85.056 236.392,85.888 236.871 C 95.589 242.460,107.263 246.783,119.000 249.134 C 127.193 250.775,129.645 250.988,140.400 250.993 C 150.520 250.997,152.066 250.882,159.800 249.544 C 177.651 246.456,195.845 238.131,209.876 226.630 L 212.353 224.600 212.376 220.400 C 212.435 209.929,209.103 201.485,202.336 194.952 C 198.791 191.531,192.562 187.600,190.684 187.600 C 190.396 187.600,189.989 187.453,189.780 187.273 C 189.571 187.093,188.500 186.738,187.400 186.483 C 186.300 186.229,183.780 185.649,181.800 185.195 C 176.418 183.960,175.312 183.704,171.600 182.835 C 164.934 181.273,165.239 181.249,162.382 183.551 C 159.728 185.690,153.853 188.742,150.800 189.567 C 149.810 189.835,148.370 190.255,147.600 190.500 C 145.665 191.117,134.623 191.065,132.600 190.430 C 131.720 190.154,130.370 189.752,129.600 189.537 C 128.003 189.092,126.801 188.602,124.800 187.579 C 121.240 185.760,119.999 185.024,118.940 184.102 C 115.529 181.134,114.959 180.903,112.800 181.615 " stroke="none" fill="#6bdbe4" fill-rule="evenodd"></path><path id="path2" d="M131.000 31.197 C 128.800 31.374,125.830 31.718,124.400 31.961 C 119.417 32.807,117.388 33.190,115.600 33.622 C 114.610 33.862,113.213 34.155,112.496 34.273 C 111.779 34.392,111.094 34.649,110.973 34.844 C 110.852 35.040,110.234 35.200,109.600 35.200 C 108.966 35.200,108.336 35.380,108.200 35.600 C 108.064 35.820,107.601 36.000,107.171 36.000 C 106.741 36.000,106.077 36.171,105.695 36.381 C 105.313 36.591,103.830 37.152,102.400 37.628 C 100.970 38.104,99.629 38.652,99.420 38.847 C 99.211 39.041,98.809 39.200,98.527 39.200 C 95.877 39.200,74.528 51.708,71.200 55.210 C 71.090 55.326,69.830 56.400,68.400 57.597 C 65.117 60.345,59.642 65.818,56.794 69.200 C 55.590 70.630,54.513 71.890,54.401 72.000 C 54.094 72.302,51.125 76.336,49.533 78.613 C 45.612 84.223,40.708 93.413,37.959 100.300 C 37.762 100.795,37.420 101.650,37.200 102.200 C 36.243 104.591,36.049 105.156,35.199 108.000 C 34.707 109.650,34.162 111.450,33.990 112.000 C 33.818 112.550,33.468 113.900,33.213 115.000 C 32.958 116.100,32.590 117.630,32.395 118.400 C 29.917 128.202,29.536 149.129,31.639 160.000 C 32.618 165.060,34.121 171.241,34.800 173.000 C 34.970 173.440,35.342 174.610,35.626 175.600 C 35.911 176.590,36.254 177.580,36.389 177.800 C 36.523 178.020,36.866 178.920,37.150 179.800 C 37.434 180.680,37.943 182.030,38.281 182.800 C 38.618 183.570,39.162 184.830,39.489 185.600 C 42.076 191.696,49.282 204.249,50.472 204.733 C 50.653 204.807,50.800 205.043,50.800 205.258 C 50.800 206.627,66.859 224.258,67.657 223.765 C 67.846 223.648,68.000 221.706,68.000 219.450 C 68.000 214.207,69.273 207.160,70.463 205.820 C 70.648 205.611,70.800 205.229,70.800 204.971 C 70.800 203.795,74.781 198.065,77.546 195.262 C 83.390 189.337,87.743 187.189,98.600 184.874 C 101.256 184.308,107.845 182.813,109.600 182.380 C 110.370 182.189,111.900 181.856,113.000 181.638 C 114.100 181.421,115.964 181.052,117.142 180.819 C 122.269 179.804,122.800 178.639,122.800 168.420 C 122.800 159.551,122.764 159.656,125.346 161.002 C 125.976 161.331,126.741 161.600,127.046 161.600 C 127.351 161.600,127.600 161.780,127.600 162.000 C 127.600 162.220,128.039 162.400,128.576 162.400 C 129.113 162.400,129.652 162.561,129.774 162.758 C 130.033 163.177,132.288 163.564,136.200 163.860 C 137.740 163.976,139.202 164.238,139.449 164.442 C 139.992 164.891,146.366 164.531,148.600 163.926 C 151.455 163.153,154.991 161.916,155.380 161.553 C 156.884 160.155,157.091 160.956,157.277 168.900 C 157.410 174.566,157.608 176.864,158.029 177.600 C 158.842 179.024,160.827 180.800,161.605 180.800 C 161.969 180.800,162.402 180.935,162.567 181.100 C 162.733 181.265,163.618 181.414,164.534 181.430 C 165.450 181.447,167.190 181.690,168.400 181.971 C 171.774 182.753,173.207 183.077,175.600 183.600 C 176.810 183.864,178.430 184.229,179.200 184.411 C 179.970 184.593,181.860 185.018,183.400 185.356 C 202.119 189.461,212.400 201.613,212.400 219.635 C 212.400 225.101,212.168 225.130,218.347 218.900 C 256.292 180.644,261.367 121.483,230.467 77.600 C 219.354 61.819,202.898 48.199,186.000 40.796 C 183.910 39.880,181.621 38.871,180.914 38.553 C 178.909 37.653,171.629 35.327,167.400 34.235 C 164.000 33.358,158.793 32.373,153.600 31.624 C 149.614 31.050,136.012 30.793,131.000 31.197 M171.200 61.776 C 179.438 64.088,185.260 69.637,188.430 78.200 C 189.486 81.053,190.087 102.763,189.238 107.406 C 188.082 113.724,183.714 118.830,177.487 121.140 C 174.638 122.197,174.858 122.813,174.715 113.400 C 174.559 103.075,172.918 99.680,166.578 96.568 L 164.200 95.400 140.560 95.400 C 116.231 95.400,116.841 95.366,113.800 96.896 C 111.070 98.269,107.200 102.530,107.200 104.162 C 107.200 104.476,106.986 104.805,106.724 104.892 C 106.383 105.006,106.198 107.422,106.073 113.358 C 105.886 122.252,105.793 122.601,103.873 121.694 C 103.393 121.467,102.332 120.988,101.516 120.630 C 96.092 118.247,92.000 112.598,91.208 106.400 C 88.417 84.560,94.754 74.816,111.766 74.791 C 120.042 74.779,120.842 74.362,126.172 67.289 C 131.168 60.658,130.714 60.770,151.800 60.924 C 166.599 61.032,168.910 61.134,171.200 61.776 M250.560 228.819 C 250.131 228.978,249.197 229.803,248.483 230.654 C 244.241 235.708,235.697 244.301,230.557 248.682 C 228.749 250.223,228.983 250.751,233.272 254.800 C 235.486 256.890,238.581 259.922,240.149 261.537 C 241.717 263.152,245.402 266.842,248.339 269.737 C 251.275 272.632,255.145 276.508,256.939 278.351 C 258.732 280.194,262.421 283.884,265.136 286.551 C 267.851 289.218,271.541 292.897,273.336 294.726 C 283.683 305.269,286.104 307.600,286.711 307.600 C 287.894 307.600,308.481 286.677,308.149 285.811 C 307.475 284.055,251.361 228.523,250.560 228.819 " stroke="none" fill="#f1f8f9" fill-rule="evenodd"></path><path id="path3" d="M142.800 0.782 C 142.800 0.992,142.125 1.271,141.300 1.403 C 127.303 3.632,108.914 10.265,95.600 17.887 C 85.318 23.773,76.574 30.364,67.600 38.993 C 62.787 43.620,61.881 44.576,57.340 49.821 C 46.458 62.389,36.245 80.740,30.970 97.200 C 29.795 100.870,29.617 101.480,28.639 105.200 C 22.469 128.675,22.691 158.907,29.183 179.200 C 29.359 179.750,29.906 181.550,30.398 183.200 C 30.890 184.850,31.631 187.079,32.046 188.153 C 32.461 189.228,32.800 190.265,32.800 190.458 C 32.800 190.651,33.160 191.617,33.600 192.604 C 34.040 193.592,34.760 195.208,35.200 196.196 C 35.640 197.183,36.000 198.105,36.000 198.243 C 36.000 198.694,41.644 209.727,43.241 212.400 C 55.908 233.590,72.072 250.037,92.357 262.374 C 96.605 264.957,106.770 270.211,110.200 271.595 C 110.640 271.773,111.630 272.192,112.400 272.525 C 118.820 275.308,132.969 279.429,140.100 280.592 C 140.925 280.726,141.600 281.008,141.600 281.218 C 141.600 281.428,142.129 281.600,142.776 281.600 C 143.423 281.600,144.049 281.756,144.168 281.948 C 144.419 282.354,147.430 282.304,147.848 281.885 C 148.005 281.728,150.073 281.600,152.443 281.600 C 154.885 281.600,156.860 281.427,157.000 281.200 C 157.136 280.980,158.497 280.800,160.024 280.800 C 161.608 280.800,162.800 280.628,162.800 280.400 C 162.800 280.180,163.779 280.000,164.976 280.000 C 166.173 280.000,167.264 279.820,167.400 279.600 C 167.536 279.380,168.256 279.200,169.000 279.200 C 169.744 279.200,170.464 279.020,170.600 278.800 C 170.736 278.580,171.647 278.400,172.624 278.400 C 173.601 278.400,174.400 278.220,174.400 278.000 C 174.400 277.780,175.120 277.600,176.000 277.600 C 176.880 277.600,177.600 277.420,177.600 277.200 C 177.600 276.980,178.129 276.800,178.776 276.800 C 179.423 276.800,180.064 276.620,180.200 276.400 C 180.336 276.180,181.067 276.000,181.824 276.000 C 182.581 276.000,183.200 275.844,183.200 275.652 C 183.200 275.461,183.804 275.207,184.542 275.087 C 186.034 274.845,193.746 271.976,196.138 270.773 C 196.984 270.348,197.929 270.000,198.238 270.000 C 198.547 270.000,198.800 269.820,198.800 269.600 C 198.800 269.380,199.149 269.200,199.576 269.200 C 200.003 269.200,200.464 269.020,200.600 268.800 C 200.736 268.580,201.197 268.400,201.624 268.400 C 202.051 268.400,202.400 268.220,202.400 268.000 C 202.400 267.780,202.760 267.600,203.200 267.600 C 203.640 267.600,204.000 267.420,204.000 267.200 C 204.000 266.980,204.360 266.800,204.800 266.800 C 205.240 266.800,205.600 266.620,205.600 266.400 C 205.600 266.180,205.920 266.000,206.312 266.000 C 206.703 266.000,207.283 265.640,207.600 265.200 C 207.917 264.760,208.497 264.400,208.888 264.400 C 209.280 264.400,209.600 264.220,209.600 264.000 C 209.600 263.780,209.960 263.600,210.400 263.600 C 210.840 263.600,211.200 263.448,211.200 263.263 C 211.200 263.077,212.055 262.492,213.100 261.963 C 214.145 261.433,215.060 260.865,215.133 260.700 C 215.207 260.535,215.522 260.400,215.833 260.400 C 216.145 260.400,216.400 260.220,216.400 260.000 C 216.400 259.780,216.670 259.600,217.000 259.600 C 217.330 259.600,217.600 259.420,217.600 259.200 C 217.600 258.980,217.836 258.800,218.125 258.800 C 218.413 258.800,219.036 258.440,219.508 258.000 C 219.980 257.560,220.483 257.200,220.626 257.200 C 220.768 257.200,221.392 256.795,222.012 256.300 C 222.632 255.805,224.500 254.410,226.163 253.200 C 227.826 251.990,229.305 250.640,229.451 250.200 C 229.596 249.760,230.094 249.077,230.557 248.682 C 235.695 244.302,243.636 236.316,248.635 230.500 C 249.439 229.565,250.302 228.800,250.553 228.800 C 250.805 228.800,251.368 228.320,251.805 227.734 C 252.242 227.148,252.780 226.473,253.001 226.234 C 253.221 225.995,253.851 225.126,254.401 224.303 C 254.950 223.479,255.535 222.804,255.700 222.803 C 255.865 222.801,256.000 222.608,256.000 222.373 C 256.000 222.139,256.450 221.357,257.000 220.636 C 257.550 219.914,258.000 219.116,258.000 218.862 C 258.000 218.608,258.180 218.400,258.400 218.400 C 258.620 218.400,258.800 218.130,258.800 217.800 C 258.800 217.470,258.980 217.200,259.200 217.200 C 259.420 217.200,259.600 216.930,259.600 216.600 C 259.600 216.270,259.780 216.000,260.000 216.000 C 260.220 216.000,260.400 215.730,260.400 215.400 C 260.400 215.070,260.580 214.800,260.800 214.800 C 261.020 214.800,261.200 214.530,261.200 214.200 C 261.200 213.870,261.380 213.600,261.600 213.600 C 261.820 213.600,262.000 213.240,262.000 212.800 C 262.000 212.360,262.180 212.000,262.400 212.000 C 262.620 212.000,262.800 211.640,262.800 211.200 C 262.800 210.760,262.950 210.400,263.133 210.400 C 263.722 210.400,269.200 199.568,269.200 198.404 C 269.200 198.182,269.380 198.000,269.600 198.000 C 269.820 198.000,270.000 197.764,270.000 197.475 C 270.000 197.186,270.360 196.205,270.800 195.294 C 271.240 194.384,271.600 193.360,271.600 193.019 C 271.600 192.679,271.741 192.400,271.913 192.400 C 272.085 192.400,272.462 191.545,272.752 190.500 C 273.042 189.455,273.387 188.240,273.520 187.800 C 273.652 187.360,273.776 186.910,273.795 186.800 C 273.813 186.690,274.053 186.195,274.328 185.700 C 274.603 185.205,274.696 184.800,274.534 184.800 C 274.372 184.800,274.456 184.584,274.720 184.320 C 274.984 184.056,275.200 183.257,275.200 182.544 C 275.200 181.831,275.380 181.136,275.600 181.000 C 275.820 180.864,276.000 180.223,276.000 179.576 C 276.000 178.929,276.180 178.400,276.400 178.400 C 276.620 178.400,276.800 177.680,276.800 176.800 C 276.800 175.920,276.980 175.200,277.200 175.200 C 277.420 175.200,277.600 174.480,277.600 173.600 C 277.600 172.720,277.780 172.000,278.000 172.000 C 278.220 172.000,278.400 171.190,278.400 170.200 C 278.400 169.210,278.580 168.400,278.800 168.400 C 279.020 168.400,279.200 167.421,279.200 166.224 C 279.200 165.027,279.380 163.936,279.600 163.800 C 279.820 163.664,280.000 162.303,280.000 160.776 C 280.000 159.249,280.169 158.000,280.375 158.000 C 281.091 158.000,281.866 133.012,281.163 132.577 C 280.964 132.454,280.800 130.574,280.800 128.400 C 280.800 126.196,280.623 124.338,280.400 124.200 C 280.180 124.064,280.000 122.793,280.000 121.376 C 280.000 119.925,279.825 118.800,279.600 118.800 C 279.378 118.800,279.200 117.733,279.200 116.400 C 279.200 115.067,279.022 114.000,278.800 114.000 C 278.580 114.000,278.400 113.201,278.400 112.224 C 278.400 111.247,278.220 110.336,278.000 110.200 C 277.780 110.064,277.600 109.243,277.600 108.376 C 277.600 107.509,277.420 106.800,277.200 106.800 C 276.980 106.800,276.800 106.181,276.800 105.424 C 276.800 104.667,276.620 103.936,276.400 103.800 C 276.180 103.664,276.000 103.124,276.000 102.600 C 276.000 102.076,275.820 101.536,275.600 101.400 C 275.380 101.264,275.200 100.533,275.200 99.776 C 275.200 99.019,275.043 98.400,274.850 98.400 C 274.657 98.400,274.500 97.992,274.500 97.493 C 274.500 96.994,274.014 95.329,273.420 93.793 C 272.825 92.257,272.153 90.460,271.925 89.800 C 271.697 89.140,270.991 87.467,270.355 86.082 C 269.720 84.697,269.200 83.302,269.200 82.982 C 269.200 82.662,269.020 82.400,268.800 82.400 C 268.580 82.400,268.400 82.189,268.400 81.930 C 268.400 81.317,265.090 74.640,264.700 74.467 C 264.535 74.393,264.400 74.078,264.400 73.767 C 264.400 73.455,264.220 73.200,264.000 73.200 C 263.780 73.200,263.600 72.855,263.600 72.433 C 263.600 72.012,263.465 71.607,263.300 71.533 C 262.924 71.366,261.625 69.236,261.329 68.300 C 261.207 67.915,260.948 67.600,260.753 67.600 C 260.559 67.600,260.400 67.414,260.400 67.187 C 260.400 66.692,256.754 61.057,256.311 60.867 C 256.140 60.793,256.000 60.512,256.000 60.242 C 256.000 59.972,255.680 59.402,255.289 58.975 C 254.898 58.549,254.142 57.570,253.608 56.800 C 253.075 56.030,252.314 55.109,251.919 54.753 C 251.524 54.397,251.200 53.919,251.200 53.690 C 251.200 53.461,250.435 52.472,249.500 51.492 C 248.565 50.512,247.182 48.946,246.426 48.011 C 244.667 45.835,242.514 43.626,241.046 42.492 C 240.411 42.001,239.999 41.600,240.130 41.600 C 240.690 41.600,231.897 33.220,231.295 33.180 C 231.133 33.170,230.280 32.451,229.400 31.583 C 228.520 30.716,227.615 30.004,227.388 30.003 C 227.162 30.001,226.724 29.650,226.415 29.221 C 226.107 28.793,225.707 28.534,225.527 28.645 C 225.347 28.756,225.200 28.691,225.200 28.501 C 225.200 28.092,221.754 25.600,221.188 25.600 C 220.975 25.600,220.800 25.450,220.800 25.268 C 220.800 25.085,220.305 24.680,219.700 24.368 C 219.095 24.055,218.251 23.485,217.825 23.100 C 217.398 22.715,216.896 22.400,216.708 22.400 C 216.520 22.400,215.980 22.040,215.508 21.600 C 215.036 21.160,214.413 20.800,214.125 20.800 C 213.836 20.800,213.600 20.620,213.600 20.400 C 213.600 20.180,213.240 20.000,212.800 20.000 C 212.360 20.000,212.000 19.841,212.000 19.647 C 212.000 19.452,211.685 19.193,211.300 19.071 C 210.553 18.834,208.333 17.554,208.000 17.168 C 207.890 17.040,207.215 16.681,206.500 16.370 C 205.785 16.059,205.200 15.669,205.200 15.502 C 205.200 15.336,204.840 15.200,204.400 15.200 C 203.960 15.200,203.600 15.020,203.600 14.800 C 203.600 14.580,203.366 14.400,203.080 14.400 C 202.344 14.400,200.407 13.459,200.403 13.100 C 200.401 12.935,200.128 12.800,199.795 12.800 C 199.462 12.800,198.877 12.633,198.495 12.429 C 196.026 11.109,188.897 8.400,187.892 8.400 C 187.511 8.400,187.200 8.220,187.200 8.000 C 187.200 7.780,186.660 7.600,186.000 7.600 C 185.340 7.600,184.800 7.420,184.800 7.200 C 184.800 6.980,184.271 6.800,183.624 6.800 C 182.977 6.800,182.336 6.620,182.200 6.400 C 182.064 6.180,181.524 6.000,181.000 6.000 C 180.476 6.000,179.936 5.820,179.800 5.600 C 179.664 5.380,178.933 5.200,178.176 5.200 C 177.419 5.200,176.800 5.020,176.800 4.800 C 176.800 4.580,176.181 4.400,175.424 4.400 C 174.667 4.400,173.936 4.220,173.800 4.000 C 173.664 3.780,172.843 3.600,171.976 3.600 C 171.109 3.600,170.400 3.420,170.400 3.200 C 170.400 2.980,169.500 2.800,168.400 2.800 C 167.300 2.800,166.400 2.652,166.400 2.471 C 166.400 2.291,165.455 2.101,164.300 2.049 C 163.145 1.998,162.140 1.786,162.067 1.578 C 161.993 1.370,160.519 1.200,158.790 1.200 C 157.062 1.200,155.536 1.020,155.400 0.800 C 155.077 0.277,142.800 0.259,142.800 0.782 M63.204 22.996 C 62.932 23.323,62.550 23.493,62.355 23.372 C 62.160 23.251,62.000 23.343,62.000 23.576 C 62.000 24.239,62.607 24.076,63.400 23.200 C 63.798 22.760,64.028 22.400,63.911 22.400 C 63.794 22.400,63.476 22.668,63.204 22.996 M153.600 31.624 C 158.793 32.373,164.000 33.358,167.400 34.235 C 171.629 35.327,178.909 37.653,180.914 38.553 C 181.621 38.871,183.910 39.880,186.000 40.796 C 245.214 66.736,268.209 139.900,235.221 197.400 C 222.834 218.991,200.112 237.277,175.400 245.542 C 168.780 247.756,163.732 248.932,154.200 250.478 C 149.862 251.182,130.980 251.171,126.400 250.462 C 110.851 248.054,97.561 243.596,85.888 236.871 C 85.056 236.392,84.198 236.000,83.981 236.000 C 83.365 236.000,75.882 230.983,72.560 228.343 C 68.275 224.937,68.000 224.681,68.000 224.087 C 68.000 223.793,67.846 223.648,67.657 223.765 C 66.859 224.258,50.800 206.627,50.800 205.258 C 50.800 205.043,50.653 204.807,50.472 204.733 C 49.282 204.249,42.076 191.696,39.489 185.600 C 39.162 184.830,38.618 183.570,38.281 182.800 C 37.943 182.030,37.434 180.680,37.150 179.800 C 36.866 178.920,36.523 178.020,36.389 177.800 C 36.254 177.580,35.911 176.590,35.626 175.600 C 35.342 174.610,34.970 173.440,34.800 173.000 C 34.121 171.241,32.618 165.060,31.639 160.000 C 29.536 149.129,29.917 128.202,32.395 118.400 C 32.590 117.630,32.958 116.100,33.213 115.000 C 33.468 113.900,33.818 112.550,33.990 112.000 C 34.162 111.450,34.707 109.650,35.199 108.000 C 36.049 105.156,36.243 104.591,37.200 102.200 C 37.420 101.650,37.762 100.795,37.959 100.300 C 40.708 93.413,45.612 84.223,49.533 78.613 C 51.125 76.336,54.094 72.302,54.401 72.000 C 54.513 71.890,55.590 70.630,56.794 69.200 C 59.642 65.818,65.117 60.345,68.400 57.597 C 69.830 56.400,71.090 55.326,71.200 55.210 C 74.528 51.708,95.877 39.200,98.527 39.200 C 98.809 39.200,99.211 39.041,99.420 38.847 C 99.629 38.652,100.970 38.104,102.400 37.628 C 103.830 37.152,105.313 36.591,105.695 36.381 C 106.077 36.171,106.741 36.000,107.171 36.000 C 107.601 36.000,108.064 35.820,108.200 35.600 C 108.336 35.380,108.966 35.200,109.600 35.200 C 110.234 35.200,110.852 35.040,110.973 34.844 C 111.094 34.649,111.779 34.392,112.496 34.273 C 113.213 34.155,114.610 33.862,115.600 33.622 C 117.388 33.190,119.417 32.807,124.400 31.961 C 131.089 30.825,146.800 30.644,153.600 31.624 M142.700 61.100 C 147.155 61.164,154.445 61.164,158.900 61.100 C 163.355 61.035,159.710 60.982,150.800 60.982 C 141.890 60.982,138.245 61.035,142.700 61.100 M182.000 68.200 C 182.746 68.970,183.447 69.600,183.557 69.600 C 183.667 69.600,183.146 68.970,182.400 68.200 C 181.654 67.430,180.953 66.800,180.843 66.800 C 180.733 66.800,181.254 67.430,182.000 68.200 M90.962 98.200 C 90.962 101.720,91.024 103.106,91.098 101.281 C 91.172 99.456,91.172 96.576,91.097 94.881 C 91.022 93.186,90.961 94.680,90.962 98.200 M161.937 182.940 C 159.483 184.938,154.631 187.585,152.000 188.361 C 151.010 188.652,149.840 189.040,149.400 189.221 C 146.364 190.472,133.937 190.464,131.000 189.209 C 130.231 188.880,129.764 188.744,126.900 188.015 C 124.267 187.345,126.727 188.708,129.700 189.567 C 130.525 189.805,131.875 190.210,132.700 190.466 C 134.630 191.066,145.744 191.092,147.600 190.500 C 148.370 190.255,149.810 189.835,150.800 189.567 C 153.811 188.753,159.714 185.702,162.282 183.632 C 163.617 182.556,165.045 181.590,165.455 181.484 C 165.985 181.348,165.893 181.279,165.137 181.246 C 164.431 181.216,163.355 181.785,161.937 182.940 M201.983 194.500 C 202.964 195.545,203.819 196.400,203.883 196.400 C 204.184 196.400,203.866 196.041,202.100 194.383 L 200.200 192.600 201.983 194.500 M45.600 245.900 C 45.600 246.069,45.960 246.432,46.400 246.707 C 46.840 246.982,47.200 247.069,47.200 246.900 C 47.200 246.731,46.840 246.368,46.400 246.093 C 45.960 245.818,45.600 245.731,45.600 245.900 M60.800 257.609 C 60.800 257.838,61.078 258.132,61.417 258.262 C 62.355 258.622,62.466 258.233,61.582 257.681 C 61.087 257.372,60.800 257.346,60.800 257.609 M134.869 282.014 C 135.570 282.424,136.985 282.349,137.456 281.877 C 137.609 281.725,136.938 281.605,135.967 281.612 C 134.625 281.621,134.361 281.718,134.869 282.014 M298.400 296.543 C 293.010 302.012,288.060 306.826,287.400 307.242 C 286.511 307.802,286.389 307.997,286.929 307.999 C 287.693 308.000,308.565 287.416,308.331 286.893 C 308.259 286.732,303.790 291.074,298.400 296.543 M325.933 289.147 C 325.860 289.338,321.120 294.303,315.400 300.179 C 305.576 310.272,304.993 310.955,304.874 312.501 L 304.747 314.137 342.874 352.281 C 371.035 380.454,381.680 390.856,383.600 392.078 C 388.022 394.891,388.185 394.979,388.755 394.858 C 390.252 394.540,397.014 386.850,398.230 384.084 C 398.588 383.268,399.088 382.168,399.341 381.639 C 399.972 380.319,399.966 366.463,399.334 365.161 C 399.077 364.632,398.628 363.615,398.336 362.900 C 398.044 362.185,397.669 361.600,397.502 361.600 C 397.336 361.600,397.200 361.357,397.200 361.059 C 397.200 360.762,396.660 359.954,396.000 359.263 C 395.340 358.572,394.800 357.869,394.800 357.700 C 394.800 357.531,394.440 357.168,394.000 356.893 C 393.560 356.618,393.200 356.216,393.200 355.999 C 393.200 355.783,390.905 353.360,388.100 350.617 C 385.295 347.873,382.861 345.487,382.691 345.314 C 382.521 345.141,380.772 343.335,378.805 341.300 C 376.838 339.265,375.042 337.600,374.814 337.600 C 374.586 337.600,374.400 337.425,374.400 337.211 C 374.400 336.997,372.675 335.152,370.567 333.111 C 368.460 331.070,366.075 328.700,365.267 327.845 C 364.460 326.989,363.147 325.602,362.349 324.763 C 361.550 323.923,360.785 323.348,360.649 323.485 C 360.512 323.621,360.400 323.520,360.400 323.259 C 360.400 322.800,355.436 317.600,354.997 317.600 C 354.586 317.600,351.200 314.021,351.200 313.587 C 351.200 313.348,351.020 313.264,350.800 313.400 C 350.580 313.536,350.400 313.337,350.400 312.957 C 350.400 312.577,350.283 312.384,350.140 312.527 C 349.996 312.670,349.321 312.126,348.640 311.318 C 347.721 310.229,337.408 299.884,332.681 295.309 C 332.505 295.139,331.037 293.605,329.419 291.900 C 326.417 288.738,326.167 288.540,325.933 289.147 M339.978 375.717 C 340.737 376.533,341.510 377.200,341.697 377.200 C 342.066 377.200,340.668 375.755,339.393 374.817 C 338.957 374.497,339.220 374.902,339.978 375.717 " stroke="none" fill="#b3c3cc" fill-rule="evenodd"></path><path id="path4" d="M131.800 62.155 C 129.553 63.219,128.385 64.381,124.905 69.017 C 120.970 74.260,120.381 74.526,112.000 74.853 C 101.089 75.280,96.322 77.646,93.017 84.276 C 90.816 88.692,90.401 105.878,92.374 110.937 C 94.098 115.359,98.196 119.366,102.814 121.146 C 106.013 122.379,105.889 122.678,106.084 113.225 C 106.204 107.410,106.389 105.004,106.726 104.891 C 106.987 104.804,107.200 104.476,107.200 104.162 C 107.200 102.530,111.070 98.269,113.800 96.896 C 116.841 95.366,116.231 95.400,140.560 95.400 L 164.200 95.400 166.578 96.568 C 172.976 99.709,174.555 103.034,174.730 113.739 L 174.861 121.678 176.308 121.406 C 181.303 120.469,186.341 115.735,188.446 110.000 C 189.612 106.822,189.922 84.321,188.859 80.000 C 186.743 71.401,179.172 63.798,170.747 61.812 C 168.690 61.327,164.890 61.211,151.000 61.210 L 133.800 61.208 131.800 62.155 M122.800 168.541 C 122.800 178.517,122.595 179.005,117.611 180.917 L 116.223 181.449 118.611 183.337 C 121.235 185.410,125.597 187.672,128.400 188.415 C 129.390 188.677,130.560 189.040,131.000 189.221 C 132.564 189.865,135.069 190.106,140.200 190.106 C 145.331 190.106,147.836 189.865,149.400 189.221 C 149.840 189.040,151.010 188.652,152.000 188.361 C 158.247 186.519,165.527 180.800,161.623 180.800 C 160.830 180.800,158.850 179.037,158.029 177.600 C 157.608 176.864,157.410 174.566,157.277 168.900 C 157.091 160.956,156.884 160.155,155.380 161.553 C 154.991 161.916,151.455 163.153,148.600 163.926 C 146.366 164.531,139.992 164.891,139.449 164.442 C 139.202 164.238,137.740 163.976,136.200 163.860 C 132.288 163.564,130.033 163.177,129.774 162.758 C 129.652 162.561,129.113 162.400,128.576 162.400 C 128.039 162.400,127.600 162.220,127.600 162.000 C 127.600 161.780,127.351 161.600,127.046 161.600 C 126.741 161.600,125.976 161.331,125.346 161.002 C 122.761 159.654,122.800 159.538,122.800 168.541 " stroke="none" fill="#eca897" fill-rule="evenodd"></path></g></svg>