<svg xmlns="http://www.w3.org/2000/svg" width="17.416" height="18.308" viewBox="0 0 17.416 18.308">
  <path id="user-aliado" d="M1466.554-2044.692a.554.554,0,0,1-.415-.187.554.554,0,0,1-.135-.434,8.264,8.264,0,0,1,5.6-6.833,5.275,5.275,0,0,1-2.669-4.583,5.278,5.278,0,0,1,5.272-5.271,5.277,5.277,0,0,1,5.271,5.271,5.275,5.275,0,0,1-2.669,4.583,8.264,8.264,0,0,1,5.6,6.833.552.552,0,0,1-.135.434.553.553,0,0,1-.415.187Zm.654-1.108h14a7.16,7.16,0,0,0-7-5.658A7.159,7.159,0,0,0,1467.208-2045.8Zm2.836-10.929a4.168,4.168,0,0,0,4.163,4.163,4.168,4.168,0,0,0,4.163-4.163,4.168,4.168,0,0,0-4.163-4.163A4.168,4.168,0,0,0,1470.044-2056.729Z" transform="translate(-1465.499 2062.5)" fill="#fff" stroke="rgba(0,0,0,0)" stroke-miterlimit="10" stroke-width="1"/>
</svg>
